# xmcd
#
# Track frame offsets: 
#        150
#        20792
#        47085
#        79246
#        100559
#        118512
#        141782
#        156608
#        177302
#        191755
#
# Disc length: 2823 seconds
#
# Revision: 0
# Processed by: cddbd v1.5.2PL0 Copyright (c) Steve Scherf et al.
# Submitted via: ExactAudioCopy v0.99pb4
#
DISCID=880b050a
DTITLE=Houdini Blues - F de Falso
DYEAR=2006
DGENRE=
TTITLE0=Bailar
TTITLE1=Eurodiva
TTITLE2=Tudo
TTITLE3=Ícaro
TTITLE4=Charles Manson
TTITLE5=Duas Balas
TTITLE6=Putuária
TTITLE7=Marguerite Duras
TTITLE8=Deus (o Teu)
TTITLE9=Galeria dos Espelhos
EXTD=
EXTT0=
EXTT1=
EXTT2=
EXTT3=
EXTT4=
EXTT5=
EXTT6=
EXTT7=
EXTT8=
EXTT9=
PLAYORDER=
